<svg xmlns="http://www.w3.org/2000/svg">

  <symbol viewBox="0 0 25 25" class="search">
    <path d="M24.8474 23.3745L17.5851 16.1122C18.9626 14.4116 19.7917 12.2497 19.7917 9.89588C19.7917 4.43932 15.3524 0 9.89583 0C4.43927 0 0 4.43932 0 9.89588C0 15.3524 4.43932 19.7918 9.89588 19.7918C12.2497 19.7918 14.4116 18.9626 16.1122 17.5852L23.3745 24.8475C23.5779 25.0508 23.9076 25.0508 24.1111 24.8475L24.8475 24.1111C25.0508 23.9076 25.0508 23.5778 24.8474 23.3745ZM9.89588 17.7084C5.58781 17.7084 2.08336 14.2039 2.08336 9.89588C2.08336 5.58781 5.58781 2.08336 9.89588 2.08336C14.2039 2.08336 17.7084 5.58781 17.7084 9.89588C17.7084 14.2039 14.2039 17.7084 9.89588 17.7084Z" fill="white" />
  </symbol>

  <symbol viewBox="0 0 75 35" class="logo">
    <path d="M37.5751 6.63867C35.992 6.63867 34.4753 7.24363 33.324 8.29539L36.4398 11.4104C36.7636 11.1677 37.1559 11.0321 37.5751 11.0321C37.9943 11.0321 38.3866 11.1677 38.7104 11.4104L41.8261 8.29539C40.6747 7.24378 39.1582 6.63867 37.5751 6.63867Z" fill="white" />
    <path d="M37.575 0C34.2148 0 31.0114 1.28241 28.5869 3.55975L31.6985 6.6705C33.2999 5.21368 35.387 4.3933 37.5752 4.3933C39.7632 4.3933 41.8503 5.21368 43.4516 6.6705L46.5632 3.55975C44.1387 1.28255 40.9353 0 37.575 0Z" fill="white" />
    <path d="M56.25 7.22363V11.6169H63.4277V15.6207H11.5723V11.6169H18.75V7.22363H0V11.6169H7.17773V22.6192L24.3652 27.3054V32.5105H29.0527V35H33.4472V32.5105H41.5528V35H45.9473V32.5105H50.6348V27.3054L67.8223 22.6192V11.6169H75V7.22363H56.25Z" fill="white" />
  </symbol>

</svg>